REM MD5 6c76542a7b920934a3d131339c4c4488
FILE "Hyper PlayStation Re-mix 1999 No. 8 (Japan).bin" BINARY
  TRACK 01 MODE2/2352
    INDEX 01 00:00:00
  TRACK 02 AUDIO
    INDEX 00 65:00:10
    INDEX 01 65:03:10
  TRACK 03 AUDIO
    INDEX 00 65:07:60
    INDEX 01 65:10:60
REM LEADOUT 68:42:50
